<svg id="Layer_1" enable-background="new 0 0 256 256" height="512" viewBox="0 0 256 256" width="512" xmlns="http://www.w3.org/2000/svg"><g><g><path d="m237.92 39.507-12.18-3.92-7.27-10.19c-2.46-3.46-7.61-3.46-10.08 0-2.408 3.366-1.296 1.808-4.98 6.98l-1.27-1.79c-2.47-3.46-7.61-3.46-10.08 0l-2.62 3.68-3.69 5.17-1.5-2.1c-2.47-3.46-7.61-3.46-10.08 0l-7.27 10.2-12.17 3.91c-4.08 1.32-5.62 6.28-3.01 9.67l7.57 9.83-.23 12.84c-.08 4.33 4.22 7.41 8.3 5.93l11.85-4.3 11.85 4.3c4.08 1.48 8.38-1.6 8.3-5.93l-.08-4.33 6.04 2.19 3.63 1.32c4.08 1.48 8.38-1.6 8.3-5.93l-.04-2.19 5.03 1.82 3.04 1.1c4.08 1.48 8.38-1.59 8.3-5.93l-.23-12.84 7.57-9.82c2.62-3.399 1.08-8.36-3-9.67z" fill="#f0c020"/></g><g><path d="m48.15 81.908c-5.7 0-10.92 2.05-14.98 5.43-3.461-.836-7.096-.891-10.69-.09-10.42 2.34-18.2 11.65-18.2 22.78 0 15.04 14.043 26.201 28.73 22.72 3.58-.84 6.85-2.51 9.58-4.8 14.625 3.615 28.91-7.504 28.91-22.68 0-12.901-10.46-23.36-23.35-23.36z" fill="#f0c020"/></g><g><path d="m48.15 123.118c-1.446 0-2.873-.171-4.241-.509-1.34-.332-2.159-1.687-1.828-3.027.332-1.34 1.692-2.154 3.027-1.828.986.245 2.02.363 3.074.364 1.367 0 2.524 1.098 2.541 2.468.017 1.3-.929 2.526-2.573 2.532zm7.418-4.185c-.846-1.09-.648-2.661.442-3.508 3.171-2.461 4.989-6.164 4.989-10.158 0-1.381 1.119-2.5 2.5-2.5s2.5 1.119 2.5 2.5c0 5.55-2.523 10.692-6.924 14.108-1.088.845-2.658.651-3.507-.442z" fill="#f9e5af"/></g><g><path d="m228.55 57.427-6.5 8.43.19 10.81-5.03-1.82-.19-10.65 7.57-9.83c2.62-3.39 1.07-8.35-3.01-9.67l-12.17-3.91-6-8.41 3.07-4.31c1.307 1.838.247.35 6.04 8.47l10.59 3.4c7.373 2.373 10.168 11.357 5.44 17.49z" fill="#f0ab20"/></g><g><path d="m211.45 64.788-6.28 8.15.15 8.71-6.04-2.19-.15-8.51 7.57-9.83c2.62-3.39 1.07-8.35-3.01-9.67l-12.17-3.91c-5.541-7.776-4.525-6.35-5.77-8.1l3.69-5.17 5.81 8.17 10.28 3.3c8.039 2.587 11.079 12.377 5.92 19.05z" fill="#f0ab20"/></g><g><path d="m42.59 127.948c-2.73 2.29-6 3.96-9.58 4.8-16.486-9.031-21.151-30.393-10.53-45.5 3.594-.801 7.229-.746 10.69.09-5.12 4.29-8.38 10.73-8.38 17.93 0 10.979 7.58 20.19 17.8 22.68z" fill="#f0ab20"/></g><g><path d="m8.9 159.448 69.5-19.29-7.73 18.49-57.56 15.97c-4.297 1.15-8.543-1.366-9.69-5.48-1.16-4.19 1.29-8.531 5.48-9.69z" fill="#7c7b7a"/></g><g><path d="m247.1 109.698c-132.004 36.613-103.57 28.724-142.35 39.49l-6.13-14.64c144.133-39.99 118.951-33.006 144.27-40.02 4.19-1.16 8.53 1.29 9.69 5.48s-1.29 8.53-5.48 9.69z" fill="#7c7b7a"/></g><g><path d="m133.49 217.857h-87.6l24.78-59.21 7.73-18.49 5.35-12.78c2.21-5.27 9.67-5.27 11.87 0l3 7.17 6.13 14.64z" fill="#fc5d3d"/></g><g><path d="m119.967 211.357h-4c-1.381 0-2.5-1.119-2.5-2.5s1.119-2.5 2.5-2.5h4c1.381 0 2.5 1.119 2.5 2.5s-1.119 2.5-2.5 2.5zm-14 0h-46.554c-1.784 0-2.995-1.82-2.306-3.465l19.559-46.735c.533-1.273 1.997-1.874 3.271-1.341 1.273.533 1.874 1.998 1.341 3.271l-18.109 43.27h42.798c1.381 0 2.5 1.119 2.5 2.5s-1.119 2.5-2.5 2.5z" fill="#ffcbc2"/></g><g><path d="m142.24 217.857c-.668 0-105.414 0-105.11 0-2.761 0-5 2.239-5 5v5.34c0 2.761 2.239 5 5 5h105.11c2.761 0 5-2.239 5-5v-5.34c0-2.761-2.239-5-5-5z" fill="#7c7b7a"/></g><g><path d="m205.74 139.8c.207-1.375-.722-2.643-2.091-2.85-1.35-.22-2.64.73-2.85 2.08-4.216 26.868-27.03 46.41-54.34 46.41-1.38 0-2.5 1.13-2.5 2.51 0 1.37 1.12 2.5 2.5 2.5 30.147-.04 54.806-22.088 59.281-50.65z"/><path d="m222.81 127.95c-1.38 0-2.5 1.12-2.5 2.49 0 35.27-25.08 65.75-59.64 72.49-1.351.26-2.23 1.58-1.97 2.93.251 1.279 1.483 2.239 2.93 1.97h.01c36.622-7.137 63.67-39.37 63.67-77.39 0-1.37-1.121-2.49-2.5-2.49z"/><path d="m45.65 92.93v12.33c0 1.38 1.12 2.5 2.5 2.5 1.37 0 2.5-1.12 2.5-2.5v-12.33c0-1.38-1.13-2.5-2.5-2.5-1.38 0-2.5 1.12-2.5 2.5z"/><path d="m87.19 144.47v1.62c0 1.38 1.12 2.5 2.5 2.5s2.5-1.12 2.5-2.5v-1.62c0-1.38-1.12-2.5-2.5-2.5s-2.5 1.12-2.5 2.5z"/><path d="m254.99 99.34c-1.494-5.343-7.08-8.783-12.771-7.22l-80.28 22.27c-1.322.347-2.116 1.736-1.739 3.07.359 1.3 1.77 2.11 3.069 1.74h.021l80.27-22.26c2.949-.814 5.844.959 6.61 3.74.813 2.942-.965 5.845-3.74 6.61l-140.219 38.9-4.183-9.992 41.972-11.648c1.33-.37 2.109-1.75 1.74-3.08-.36-1.29-1.771-2.1-3.07-1.74l-42.589 11.818-2.151-5.139c-3.022-7.291-13.425-7.344-16.49 0l-4.881 11.666-68.309 18.965c-.01 0-.01 0-.02 0-5.356 1.485-8.781 7.088-7.22 12.77 1.529 5.467 7.245 8.745 12.74 7.22l52.613-14.59-22.143 52.92h-7.09c-4.13 0-7.5 3.36-7.5 7.5v5.34c0 4.13 3.37 7.5 7.5 7.5h105.11c4.13 0 7.5-3.37 7.5-7.5v-5.34c0-4.14-3.37-7.5-7.5-7.5h-7.081l-13.61-32.52c-.52-1.23-2.03-1.86-3.28-1.34-1.298.552-1.847 2.024-1.34 3.26v.01l12.8 30.59h-80.079c6.49-15.51 22.382-53.493 36.41-87.02 1.378-3.245 5.883-3.214 7.25 0 22.614 54.033 11.99 28.647 15.9 37.99.52 1.23 2.03 1.86 3.27 1.33 1.27-.53 1.88-1.99 1.35-3.27l-5.672-13.549 139.612-38.731c5.345-1.495 8.782-7.085 7.22-12.77zm-112.75 121.02c1.38 0 2.5 1.12 2.5 2.5v5.34c0 1.37-1.12 2.49-2.5 2.5h-105.11c-1.38-.01-2.5-1.13-2.5-2.5v-5.34c0-1.38 1.12-2.5 2.5-2.5zm-129.78-48.16c-3.072.817-5.885-1.039-6.63-3.73-.814-3.009 1.004-5.854 3.73-6.61h.01l64.534-17.918-5.281 12.62z"/><path d="m152.3 117.06c-1.288.362-2.123 1.694-1.74 3.08.361 1.287 1.713 2.114 3.08 1.74 1.339-.377 2.105-1.782 1.74-3.08-.36-1.3-1.78-2.1-3.08-1.74z"/><path d="m114.41 172.28c-1.288.55-1.865 2.016-1.34 3.27.552 1.316 2.078 1.858 3.27 1.34 1.278-.535 1.875-1.988 1.35-3.27-.52-1.24-2.03-1.86-3.28-1.34z"/><path d="m64.36 92.14c.849 1.067 2.435 1.231 3.5.36 1.07-.87 1.24-2.44.37-3.52-.83-1.03-2.48-1.2-3.52-.36-1.06.87-1.23 2.44-.36 3.52z"/><path d="m33.59 135.18c3.475-.815 6.77-2.381 9.626-4.544 15.915 3.135 30.784-9.153 30.784-25.366 0-2.2-.28-4.38-.82-6.48-.34-1.31-1.72-2.13-3.04-1.79-1.342.33-2.148 1.73-1.8 3.04.44 1.7.66 3.46.66 5.23-.02 11.47-9.37 20.83-20.85 20.85-11.596 0-20.872-9.399-20.86-20.85 0-11.422 9.237-20.86 20.86-20.86 3.26 0 6.39.73 9.29 2.18 1.21.6 2.75.08 3.35-1.12.62-1.24.11-2.74-1.12-3.36h-.01c-2.799-1.399-5.874-2.265-9.01-2.569v-4.651h3.16c1.38 0 2.51-1.12 2.51-2.5s-1.13-2.5-2.51-2.5h-11.33c-1.38 0-2.5 1.12-2.5 2.5s1.12 2.5 2.5 2.5h3.17v4.651c-4.734.462-9.266 2.238-13.081 5.117-.807-.155-1.621-.267-2.439-.345v-4.663h3.17c1.37 0 2.5-1.12 2.5-2.5s-1.13-2.5-2.5-2.5h-11.34c-1.38 0-2.5 1.12-2.5 2.5s1.12 2.5 2.5 2.5h3.17v4.66c-1.069.103-2.135.266-3.19.5-11.703 2.614-20.16 13.082-20.16 25.22 0 16.55 15.39 29.003 31.81 25.15zm-5.69-46c-3.541 4.466-5.61 10.145-5.61 16.09 0 10.09 5.859 19.121 14.77 23.35-1.47.75-3.02 1.32-4.62 1.69-13.006 3.127-25.637-6.859-25.66-20.28 0-10.802 8.629-20.85 21.12-20.85z"/><path d="m156.77 71.78c-.004.249-.21 11.871-.21 12.12.012 5.869 5.817 10.235 11.65 8.17l11-3.99 11 3.99c5.634 2.055 11.625-2.168 11.649-8.17.004 0-.012-.846-.012-.849l6.252 2.269c5.285 1.89 10.764-1.591 11.548-6.93l4.782 1.731c5.579 2.053 11.624-2.119 11.65-8.16l-.221-12.13 7.04-9.13c3.649-4.741 1.558-11.716-4.21-13.57l-11.399-3.67-6.79-9.51c-3.418-4.86-10.676-4.87-14.15-.01l-3.002 4.214c-3.828-3.969-10.211-3.393-13.328.985l-4.304 6.04c-3.73-4.231-10.388-3.808-13.586.71l-6.78 9.52-11.38 3.66c-5.836 1.886-7.851 8.901-4.229 13.57zm53.65-44.93c1.493-2.082 4.558-2.054 6.01 0l7.271 10.19c.31.43.77.76 1.27.93l12.18 3.92c2.45.78 3.343 3.724 1.79 5.76l-7.569 9.82c-.351.45-.53 1.01-.521 1.57l.23 12.84v.08c0 2.503-2.492 4.337-4.95 3.46l-6.45-2.34-.149-8.05 7.039-9.14c3.626-4.675 1.598-11.69-4.22-13.57l-11.39-3.66-4.477-6.285zm-16.32 5.19c1.462-2.067 4.538-2.067 6 0l1.241 1.741c.011.016.018.033.029.049l6 8.41c.303.42.753.765 1.279.93l12.16 3.91c2.344.75 3.407 3.638 1.8 5.76-.015.016-7.556 9.813-7.569 9.83-.351.45-.53 1.01-.521 1.57.22 12.286.178 9.932.23 12.92 0 2.57-2.581 4.326-4.95 3.46l-8.047-2.929-.104-5.911 7.03-9.14c3.634-4.69 1.586-11.694-4.22-13.57l-11.391-3.66-4.25-5.97zm-38.6 21.79 12.17-3.91c.5-.16.95-.49 1.27-.93l7.271-10.2c1.462-2.068 4.538-2.067 6 0l7.27 10.2c.311.43.761.76 1.271.93l12.17 3.91c2.37.759 3.398 3.689 1.8 5.76l-7.57 9.83c-.35.45-.529 1.01-.52 1.57l.15 8.51c0 .01.003.019.003.029l.076 4.25c0 2.788-2.6 4.429-4.949 3.59l-11.851-4.3c-.537-.199-1.158-.2-1.7 0l-11.85 4.3c-2.401.857-4.95-.873-4.95-3.52l.23-12.86c.01-.57-.181-1.12-.521-1.57l-7.569-9.83c-1.544-1.994-.678-4.976 1.799-5.759z"/></g><g><path d="m165.782 80.717c-.472-1.298.199-2.732 1.497-3.203l8.008-2.906c2.523-.915 5.322-.915 7.846 0l4.589 1.666-.093-5.325c0-2.523.849-5.016 2.39-7.017l2.961-3.845c-5.387-1.731-5.565-1.748-6.572-2.248-1.237-.614-1.742-2.114-1.128-3.351.612-1.237 2.111-1.743 3.351-1.128.699.347.666.291 9.266 3.053 1.647.529 2.271 2.536 1.216 3.906l-5.132 6.663c-.972 1.263-1.42 2.901-1.349 4.081l.155 8.756c.031 1.75-1.706 2.992-3.353 2.395l-8.006-2.905c-1.426-.517-3.01-.517-4.436 0l-8.008 2.906c-1.296.469-2.731-.2-3.202-1.498zm13.133-31.051-1.74-2.443c-.801-1.125-.539-2.686.586-3.486 1.123-.801 2.687-.539 3.486.586l1.74 2.443c.801 1.125.539 2.686-.586 3.486-1.119.798-2.684.541-3.486-.586z" fill="#f9e5af"/></g></g></svg>