<svg height="512" viewBox="0 0 58 58" width="512" xmlns="http://www.w3.org/2000/svg"><g id="Page-1" fill="none" fill-rule="evenodd"><g id="040---Crystal-Ball" fill-rule="nonzero" transform="translate(0 -1)"><path id="Shape" d="m42 25c.0002515 4.4708869-2.3007804 8.6271021-6.09 11l-6.91 2-6.91-2c-3.7892196-2.3728979-6.0902515-6.5291131-6.09-11 .002394-.6863567.0558751-1.3715832.16-2.05v-.01l.31-.49 5.09-8.11c4.4695672-3.1193246 10.4104328-3.1193246 14.88 0l5.09 8.11.31.49c.1041208.6817745.1576004 1.3703248.16 2.06z" fill="#2f9fc3"/><path id="Shape" d="m41.53 22.45c-1.5509493 5.6407821-6.6798832 9.5498404-12.53 9.5498404s-10.9790507-3.9090583-12.53-9.5498404l5.09-8.11c4.4695672-3.1193246 10.4104328-3.1193246 14.88 0z" fill="#67b0c3"/><path id="Shape" d="m23.342 33c-.2286912.000756-.4505913-.0776864-.628-.222-2.3532259-1.8954772-3.7192859-4.7563319-3.714-7.778 0-.5522847.4477153-1 1-1s1 .4477153 1 1c-.0045071 2.4177447 1.0887214 4.7068299 2.972 6.223.3291744.2666865.4545815.7118554.3130189 1.1111516-.1415625.3992963-.5193711.66606-.9430189.6658484z" fill="#96c0ca"/><path id="Shape" d="m33.126 18c-.1594445-.0000217-.3165392-.0384379-.458-.112-1.9633295-1.0055568-4.2531084-1.1620642-6.335-.433-.5208045.1839108-1.0920892-.0891955-1.276-.61s.0891955-1.0920892.61-1.276c2.6036799-.9026863 5.4625889-.707014 7.919.542.4106572.2115193.6229972.6767883.513704 1.1256031-.1092932.4488149-.5117745.7643656-.973704.7633969z" fill="#96c0ca"/><path id="Shape" d="m5.4 22.189 2.79-1.68c.51220747-.3036299.86096239-.8212556.95-1.41l1.59-10.299c.1763644-1.12766661.8234266-2.12734137 1.78-2.75l7.22-4.68c1.0576253-.69587878 2.4791212-.4026253 3.175.655s.4026253 2.47912122-.655 3.175l-6.49 4.32c-.4826439.3243483-.800224.8426974-.87 1.42l-.69 5.451c-.0271673.2148213.0907657.4217794.2894292.5079133.1986635.0861338.4303377.0307536.5685708-.1359133l2.747-3.118c.39387-.4695904.9668597-.7521654 1.5791831-.7787881.6123234-.0266228 1.2076763.2051547 1.6408169.6387881.7644068.748189.8664563 1.9430185.24 2.81l-4.309 5.7c-.5562637.7680003-1.2446424 1.4309838-2.033 1.958l-6.083 4.066-2.84-2.039z" fill="#f4cea4"/><path id="Shape" d="m5.285 22 3.542 6.029c.27291221.4548452.35395792.9994758.22530764 1.5140769s-.45645796.9570184-.91130764 1.2299231l-1.57.942c-.45484518.2729122-.99947579.3539579-1.51407691.2253076-.51460112-.1286502-.95701838-.4564579-1.22992309-.9113076l-3.542-6.029c-.27291221-.4548452-.35395792-.9994758-.22530764-1.5140769s.45645796-.9570184.91130764-1.2299231l1.57-.942c.45484518-.2729122.99947579-.3539579 1.51407691-.2253076.51460112.1286502.95701838.4564579 1.22992309.9113076z" fill="#ff5364"/><path id="Shape" d="m49.16 28.039-6.083-4.066c-.7883576-.5270162-1.4767363-1.1899997-2.033-1.958l-4.309-5.7c-.6268948-.86686-.5248183-2.0620052.24-2.81.4331406-.4336334 1.0284935-.6654109 1.6408169-.6387881.6123234.0266227 1.1853131.3091977 1.5791831.7787881l2.747 3.118c.1382331.1666669.3699073.2220471.5685708.1359133.1986635-.0861339.3165965-.293092.2894292-.5079133l-.69-5.451c-.069776-.5773026-.3873561-1.0956517-.87-1.42l-6.49-4.32c-1.0576253-.69587878-1.3508788-2.1173747-.655-3.175s2.1173747-1.35087878 3.175-.655l7.22 4.68c.9565734.62265863 1.6036356 1.62233339 1.78 2.75l1.59 10.3c.0890376.5887444.4377925 1.1063701.95 1.41l2.79 1.68-.6 3.81z" fill="#f4cea4"/><path id="Shape" d="m52.715 22-3.542 6.029c-.2729122.4548452-.3539579.9994758-.2253076 1.5140769.1286502.5146011.4564579.9570184.9113076 1.2299231l1.57.942c.4548452.2729122.9994758.3539579 1.5140769.2253076.5146011-.1286502.9570184-.4564579 1.2299231-.9113076l3.542-6.029c.2729122-.4548452.3539579-.9994758.2253076-1.5140769-.1286502-.5146011-.4564579-.9570184-.9113076-1.2299231l-1.57-.942c-.4548452-.2729122-.9994758-.3539579-1.5140769-.2253076-.5146011.1286502-.9570184.4564579-1.2299231.9113076z" fill="#ff5364"/><path id="Shape" d="m20 36h18c1.1045695 0 2 .8954305 2 2v5h-22v-5c0-1.1045695.8954305-2 2-2z" fill="#8c9c9c"/><path id="Shape" d="m18 42-3.583 2.967c-.372899.3096178-.511409.8199355-.3462222 1.2756s.5985417.7586707 1.0832222.7574l13.846 2 13.846-2c.4846805.0012707.9180354-.3017355 1.0832222-.7574s.0266768-.9659822-.3462222-1.2756l-3.583-2.967z" fill="#7f8384"/><path id="Shape" d="m22 43c-.5522847 0-1-.4477153-1-1v-2c0-.5522847.4477153-1 1-1s1 .4477153 1 1v2c0 .5522847-.4477153 1-1 1z" fill="#7f8384"/><path id="Shape" d="m56.12 55.683-7.3 2.655c-1.2045343.4379137-2.4763326.6619505-3.758.662h-32.944c-1.3993435.0000318-2.78582781-.2670829-4.085-.787l-6.233-2.495c-1.08590046-.4321333-1.7989353-1.4822751-1.8-2.651v-.134c.0010647-1.1687249.71409954-2.2188667 1.8-2.651l6.238-2.495c1.29761068-.5192926 2.6823384-.7863957 4.08-.787h32.944c1.2820032-.000067 2.55415.2239716 3.759.662l7.3 2.655c1.1282876.410127 1.8792978 1.4824847 1.879 2.683.000145 1.2007721-.7513182 2.273206-1.88 2.683z" fill="#e7bb19"/><path id="Shape" d="m41 52h-24c-.5522847 0-1-.4477153-1-1s.4477153-1 1-1h24c.5522847 0 1 .4477153 1 1s-.4477153 1-1 1z" fill="#eacc5b"/></g></g></svg>