<svg height="512" viewBox="0 0 64 64" width="512" xmlns="http://www.w3.org/2000/svg"><path d="m12 61a4 4 0 0 1 -4-4v-4h40s1.791 8 4 8z" fill="#e9a971"/><path d="m52 61a4 4 0 0 1 -4-4v-4h-36v-46h44v50a4 4 0 0 1 -4 4z" fill="#fef9e1"/><path d="m27 41h24v6h-24z" fill="#cdeef6"/><path d="m27 28h24v6h-24z" fill="#cdeef6"/><path d="m17 3h4v8h-4z" fill="#a46634"/><path d="m47 3h4v8h-4z" fill="#a46634"/><path d="m11 56h2v2h-2z" fill="#fef9e1"/><path d="m15 56h2v2h-2z" fill="#fef9e1"/><path d="m21 22h-2v-4.8l-2.445 1.63-1.11-1.664 3-2a1.006 1.006 0 0 1 .555-.166h1a1 1 0 0 1 1 1z" fill="#cd4b4c"/><path d="m17 21h6v2h-6z" fill="#cd4b4c"/><path d="m23 35h-6a1 1 0 0 1 -1-1v-1a1 1 0 0 1 .485-.857l4.515-2.709v-1.434h-3v2h-2v-3a1 1 0 0 1 1-1h5a1 1 0 0 1 1 1v3a1 1 0 0 1 -.485.857l-3.571 2.143h4.056z" fill="#ebbc69"/><path d="m22 49h-6v-2h5v-6h-5v-2h6a1 1 0 0 1 1 1v8a1 1 0 0 1 -1 1z" fill="#5181be"/><path d="m17 43h5v2h-5z" fill="#5181be"/><path d="m27 16h24v6h-24z" fill="#cd4b4c"/><path d="m27 28h20v6h-20z" fill="#ebbc69"/><path d="m27 41h16v6h-16z" fill="#5181be"/><g fill="#e9a971"><path d="m24 10h2v2h-2z"/><path d="m28 10h12v2h-12z"/><path d="m42 10h2v2h-2z"/></g></svg>